<mxfile host="app.diagrams.net" agent="Mozilla/5.0 (X11; Linux x86_64; rv:100.0) Gecko/20100101 Firefox/100.0" version="26.0.14">
  <diagram name="Pagina-1" id="mITJX3cotnDQdAkGSkDO">
    <mxGraphModel dx="1364" dy="795" grid="1" gridSize="10" guides="1" tooltips="1" connect="1" arrows="1" fold="1" page="1" pageScale="1" pageWidth="827" pageHeight="1169" math="0" shadow="0">
      <root>
        <mxCell id="0" />
        <mxCell id="1" parent="0" />
        <mxCell id="fZ750VIvPBP_JPinvpEB-3" value="" style="edgeStyle=orthogonalEdgeStyle;rounded=0;orthogonalLoop=1;jettySize=auto;html=1;" edge="1" parent="1" source="fZ750VIvPBP_JPinvpEB-1" target="fZ750VIvPBP_JPinvpEB-2">
          <mxGeometry relative="1" as="geometry" />
        </mxCell>
        <mxCell id="fZ750VIvPBP_JPinvpEB-1" value="start" style="ellipse;whiteSpace=wrap;html=1;" vertex="1" parent="1">
          <mxGeometry x="340" width="120" height="80" as="geometry" />
        </mxCell>
        <mxCell id="fZ750VIvPBP_JPinvpEB-5" value="" style="edgeStyle=orthogonalEdgeStyle;rounded=0;orthogonalLoop=1;jettySize=auto;html=1;" edge="1" parent="1" source="fZ750VIvPBP_JPinvpEB-2" target="fZ750VIvPBP_JPinvpEB-4">
          <mxGeometry relative="1" as="geometry" />
        </mxCell>
        <mxCell id="fZ750VIvPBP_JPinvpEB-2" value="read n" style="shape=parallelogram;perimeter=parallelogramPerimeter;whiteSpace=wrap;html=1;fixedSize=1;" vertex="1" parent="1">
          <mxGeometry x="340" y="120" width="120" height="50" as="geometry" />
        </mxCell>
        <mxCell id="fZ750VIvPBP_JPinvpEB-9" value="" style="edgeStyle=orthogonalEdgeStyle;rounded=0;orthogonalLoop=1;jettySize=auto;html=1;" edge="1" parent="1" source="fZ750VIvPBP_JPinvpEB-4" target="fZ750VIvPBP_JPinvpEB-8">
          <mxGeometry relative="1" as="geometry" />
        </mxCell>
        <mxCell id="fZ750VIvPBP_JPinvpEB-13" value="" style="edgeStyle=orthogonalEdgeStyle;rounded=0;orthogonalLoop=1;jettySize=auto;html=1;" edge="1" parent="1" source="fZ750VIvPBP_JPinvpEB-4" target="fZ750VIvPBP_JPinvpEB-12">
          <mxGeometry relative="1" as="geometry" />
        </mxCell>
        <mxCell id="fZ750VIvPBP_JPinvpEB-20" value="true" style="edgeLabel;html=1;align=center;verticalAlign=middle;resizable=0;points=[];" vertex="1" connectable="0" parent="fZ750VIvPBP_JPinvpEB-13">
          <mxGeometry x="-0.4" y="4" relative="1" as="geometry">
            <mxPoint as="offset" />
          </mxGeometry>
        </mxCell>
        <mxCell id="fZ750VIvPBP_JPinvpEB-4" value="n==1" style="rhombus;whiteSpace=wrap;html=1;" vertex="1" parent="1">
          <mxGeometry x="360" y="235" width="80" height="80" as="geometry" />
        </mxCell>
        <mxCell id="fZ750VIvPBP_JPinvpEB-11" value="" style="edgeStyle=orthogonalEdgeStyle;rounded=0;orthogonalLoop=1;jettySize=auto;html=1;" edge="1" parent="1" source="fZ750VIvPBP_JPinvpEB-8" target="fZ750VIvPBP_JPinvpEB-10">
          <mxGeometry relative="1" as="geometry" />
        </mxCell>
        <mxCell id="fZ750VIvPBP_JPinvpEB-15" value="" style="edgeStyle=orthogonalEdgeStyle;rounded=0;orthogonalLoop=1;jettySize=auto;html=1;" edge="1" parent="1" source="fZ750VIvPBP_JPinvpEB-8" target="fZ750VIvPBP_JPinvpEB-14">
          <mxGeometry relative="1" as="geometry" />
        </mxCell>
        <mxCell id="fZ750VIvPBP_JPinvpEB-21" value="true" style="edgeLabel;html=1;align=center;verticalAlign=middle;resizable=0;points=[];" vertex="1" connectable="0" parent="fZ750VIvPBP_JPinvpEB-15">
          <mxGeometry x="-0.2857" y="-1" relative="1" as="geometry">
            <mxPoint as="offset" />
          </mxGeometry>
        </mxCell>
        <mxCell id="fZ750VIvPBP_JPinvpEB-8" value="n==2" style="rhombus;whiteSpace=wrap;html=1;" vertex="1" parent="1">
          <mxGeometry x="360" y="360" width="80" height="80" as="geometry" />
        </mxCell>
        <mxCell id="fZ750VIvPBP_JPinvpEB-17" value="" style="edgeStyle=orthogonalEdgeStyle;rounded=0;orthogonalLoop=1;jettySize=auto;html=1;" edge="1" parent="1" source="fZ750VIvPBP_JPinvpEB-10" target="fZ750VIvPBP_JPinvpEB-16">
          <mxGeometry relative="1" as="geometry" />
        </mxCell>
        <mxCell id="fZ750VIvPBP_JPinvpEB-22" value="true" style="edgeLabel;html=1;align=center;verticalAlign=middle;resizable=0;points=[];" vertex="1" connectable="0" parent="fZ750VIvPBP_JPinvpEB-17">
          <mxGeometry x="-0.1143" relative="1" as="geometry">
            <mxPoint as="offset" />
          </mxGeometry>
        </mxCell>
        <mxCell id="fZ750VIvPBP_JPinvpEB-19" value="" style="edgeStyle=orthogonalEdgeStyle;rounded=0;orthogonalLoop=1;jettySize=auto;html=1;" edge="1" parent="1" source="fZ750VIvPBP_JPinvpEB-10" target="fZ750VIvPBP_JPinvpEB-18">
          <mxGeometry relative="1" as="geometry">
            <Array as="points">
              <mxPoint x="400" y="660" />
            </Array>
          </mxGeometry>
        </mxCell>
        <mxCell id="fZ750VIvPBP_JPinvpEB-23" value="false" style="edgeLabel;html=1;align=center;verticalAlign=middle;resizable=0;points=[];" vertex="1" connectable="0" parent="fZ750VIvPBP_JPinvpEB-19">
          <mxGeometry x="-0.0222" y="-4" relative="1" as="geometry">
            <mxPoint as="offset" />
          </mxGeometry>
        </mxCell>
        <mxCell id="fZ750VIvPBP_JPinvpEB-10" value="n==3" style="rhombus;whiteSpace=wrap;html=1;" vertex="1" parent="1">
          <mxGeometry x="360" y="480" width="80" height="80" as="geometry" />
        </mxCell>
        <mxCell id="fZ750VIvPBP_JPinvpEB-24" style="edgeStyle=orthogonalEdgeStyle;rounded=0;orthogonalLoop=1;jettySize=auto;html=1;" edge="1" parent="1" source="fZ750VIvPBP_JPinvpEB-12">
          <mxGeometry relative="1" as="geometry">
            <mxPoint x="760" y="275" as="targetPoint" />
          </mxGeometry>
        </mxCell>
        <mxCell id="fZ750VIvPBP_JPinvpEB-12" value="write &quot;1st&quot;" style="shape=parallelogram;perimeter=parallelogramPerimeter;whiteSpace=wrap;html=1;fixedSize=1;" vertex="1" parent="1">
          <mxGeometry x="500" y="245" width="120" height="60" as="geometry" />
        </mxCell>
        <mxCell id="fZ750VIvPBP_JPinvpEB-25" style="edgeStyle=orthogonalEdgeStyle;rounded=0;orthogonalLoop=1;jettySize=auto;html=1;" edge="1" parent="1" source="fZ750VIvPBP_JPinvpEB-14">
          <mxGeometry relative="1" as="geometry">
            <mxPoint x="770" y="400" as="targetPoint" />
          </mxGeometry>
        </mxCell>
        <mxCell id="fZ750VIvPBP_JPinvpEB-14" value="write &quot;2nd&quot;" style="shape=parallelogram;perimeter=parallelogramPerimeter;whiteSpace=wrap;html=1;fixedSize=1;" vertex="1" parent="1">
          <mxGeometry x="500" y="370" width="120" height="60" as="geometry" />
        </mxCell>
        <mxCell id="fZ750VIvPBP_JPinvpEB-26" style="edgeStyle=orthogonalEdgeStyle;rounded=0;orthogonalLoop=1;jettySize=auto;html=1;" edge="1" parent="1" source="fZ750VIvPBP_JPinvpEB-16">
          <mxGeometry relative="1" as="geometry">
            <mxPoint x="770" y="520" as="targetPoint" />
          </mxGeometry>
        </mxCell>
        <mxCell id="fZ750VIvPBP_JPinvpEB-16" value="write &quot;3rd&quot;" style="shape=parallelogram;perimeter=parallelogramPerimeter;whiteSpace=wrap;html=1;fixedSize=1;" vertex="1" parent="1">
          <mxGeometry x="500" y="490" width="120" height="60" as="geometry" />
        </mxCell>
        <mxCell id="fZ750VIvPBP_JPinvpEB-27" style="edgeStyle=orthogonalEdgeStyle;rounded=0;orthogonalLoop=1;jettySize=auto;html=1;" edge="1" parent="1" source="fZ750VIvPBP_JPinvpEB-18">
          <mxGeometry relative="1" as="geometry">
            <mxPoint x="770" y="660" as="targetPoint" />
          </mxGeometry>
        </mxCell>
        <mxCell id="fZ750VIvPBP_JPinvpEB-18" value="write &quot;nth!&quot;" style="shape=parallelogram;perimeter=parallelogramPerimeter;whiteSpace=wrap;html=1;fixedSize=1;" vertex="1" parent="1">
          <mxGeometry x="450" y="630" width="120" height="60" as="geometry" />
        </mxCell>
        <mxCell id="fZ750VIvPBP_JPinvpEB-29" value="" style="endArrow=classic;html=1;rounded=0;" edge="1" parent="1" target="fZ750VIvPBP_JPinvpEB-30">
          <mxGeometry width="50" height="50" relative="1" as="geometry">
            <mxPoint x="760" y="280" as="sourcePoint" />
            <mxPoint x="760" y="816" as="targetPoint" />
          </mxGeometry>
        </mxCell>
        <mxCell id="fZ750VIvPBP_JPinvpEB-30" value="end" style="ellipse;whiteSpace=wrap;html=1;" vertex="1" parent="1">
          <mxGeometry x="700" y="776" width="120" height="80" as="geometry" />
        </mxCell>
      </root>
    </mxGraphModel>
  </diagram>
</mxfile>
